<?xml version="1.0"?>
<svg xmlns="http://www.w3.org/2000/svg" viewBox="0 0 64 64" width="512" height="512"><g id="website-file-data-graph"><path d="M9,51.183V42H7v9.183a3,3,0,1,0,2,0Z"/><path d="M52,16a3,3,0,1,0-2.817-4H38v2H49.183A2.986,2.986,0,0,0,52,16Z"/><polygon points="30.77 14 27 9.7 27 14 30.77 14"/><path d="M26.72,6.34l7.03,8.04a.978.978,0,0,1,.25.65V21h2V4H6V6H25.96A1,1,0,0,1,26.72,6.34Z"/><path d="M18,62H60V31H18Zm13-2H26V58h5Zm0-4H24V54h7ZM58,44H54V42h4ZM48,34H58v2H48Zm0,4H58v2H48Zm-6-4h4v2H42Zm0,4h4v2H42Zm0,4H52v2H42Zm1,8a2,2,0,0,1,2,2c0,.064-.013.124-.019.186l4.2,3a1.916,1.916,0,0,1,1.19-.145l3.754-4.38A1.967,1.967,0,0,1,54,50a2.021,2.021,0,1,1,1.635,1.963l-3.755,4.38A1.967,1.967,0,0,1,52,57a2,2,0,0,1-4,0c0-.064.013-.124.019-.186l-4.195-3A1.994,1.994,0,0,1,43,54a1.967,1.967,0,0,1-.657-.12l-4.38,3.755A2,2,0,1,1,36,56a1.967,1.967,0,0,1,.657.12l4.38-3.755A1.983,1.983,0,0,1,43,50ZM30,34a1,1,0,0,1,1-1,8.009,8.009,0,0,1,8,8,1,1,0,0,1-1,1H31a1,1,0,0,1-1-1Zm-2,2a1,1,0,0,1,1,1v6h6a1,1,0,0,1,1,1,8,8,0,1,1-8-8ZM20,54h2v2H20Zm0,4h4v2H20Z"/><path d="M32,16H26a1,1,0,0,1-1-1V8H4V40H16V22a1,1,0,0,1,1-1H32ZM14,20H10V18h4Zm9-4H14V14h9Zm0-4H12V10H23Z"/><path d="M18,23v6H60V23Zm4,4H20V25h2Zm4,0H24V25h2Zm4,0H28V25h2Z"/><path d="M28,50a6.01,6.01,0,0,0,5.917-5H28a1,1,0,0,1-1-1V38.083A6,6,0,0,0,28,50Z"/><path d="M32,35.083V40h4.917A6.017,6.017,0,0,0,32,35.083Z"/></g></svg>
