<?xml version="1.0" encoding="iso-8859-1"?>
<!-- Generator: Adobe Illustrator 19.0.0, SVG Export Plug-In . SVG Version: 6.00 Build 0)  -->
<svg version="1.1" id="Capa_1" xmlns="http://www.w3.org/2000/svg" xmlns:xlink="http://www.w3.org/1999/xlink" x="0px" y="0px"
	 viewBox="0 0 496 496" style="enable-background:new 0 0 496 496;" xml:space="preserve">
<g>
	<g>
		<path d="M344,0H152c-4.418,0-8,3.582-8,8v480c0,4.418,3.582,8,8,8h32c4.418,0,8-3.582,8-8v-40h112v40c0,4.418,3.582,8,8,8h32
			c4.418,0,8-3.582,8-8V8C352,3.582,348.418,0,344,0z M288,16h16v104h-16V16z M240,16h32v104h-32V16z M160,16h64v104h-64V16z
			 M160,160h16v104h-16V160z M160,280h127.472c0.336,0.088,0.679,0.152,1.024,0.192h0.304c0.27-0.048,0.537-0.112,0.8-0.192H336v8
			H160V280z M192,264V160h16v104H192z M276.36,250l43.552-46.888L331.64,214l-43.552,46.888L276.36,250z M288,304v104h-16V304H288z
			 M256,304v104h-32V304H256z M208,304v104h-16V304H208z M160,304h16v104h-16V304z M176,480h-16v-32h16V480z M336,480h-16v-32h16
			V480z M336,432H160v-8h176V432z M336,408h-32V304h32V408z M336,264h-28.968L336,232.8V264z M336,196.216l-11.056-10.272
			c-1.531-1.484-3.616-2.256-5.744-2.128c-2.131,0.068-4.147,0.984-5.6,2.544l-54.4,58.608c-3.006,3.237-2.82,8.297,0.416,11.304
			l8.32,7.728H224V160h112V196.216z M336,144H160v-8h176V144z M336,120h-16V16h16V120z"/>
	</g>
</g>
<g>
</g>
<g>
</g>
<g>
</g>
<g>
</g>
<g>
</g>
<g>
</g>
<g>
</g>
<g>
</g>
<g>
</g>
<g>
</g>
<g>
</g>
<g>
</g>
<g>
</g>
<g>
</g>
<g>
</g>
</svg>
