<svg height="512" viewBox="0 0 59 60" width="512" xmlns="http://www.w3.org/2000/svg"><g id="Page-1" fill="none" fill-rule="evenodd"><g id="023---Educational-Books" fill="rgb(0,0,0)" fill-rule="nonzero" transform="translate(-1)"><path id="Shape" d="m33.689 20.125-2.689 5.575-2.695-5.586c-.3757914-.7532257-1.1813119-1.1923102-2.018-1.1-4.0961493.3238416-8.0456504 1.6699108-11.487 3.915-.7237379-.6810417-1.7079847-1.0134827-2.6964491-.9107577-.9884644.1027251-1.8833194.6304496-2.4515509 1.4457577-.97014358 1.3683128-.84480047 3.2300758.3 4.456l15.929 16.855c1.3238882 1.418519 3.1771712 2.2238935 5.1175 2.2238935s3.7936118-.8053745 5.1175-2.2238935l11.824-12.468 4.106-4.386c1.1453722-1.2228189 1.2740289-3.0820765.308-4.451-.5671649-.8176532-1.4625036-1.3475394-2.4521866-1.4512717s-1.9754348.2289899-2.6998134.9112717c-3.4402135-2.2448371-7.388855-3.5902772-11.484-3.913-.8424914-.0963958-1.6546555.3471123-2.029 1.108zm-7.18.87 3.59 7.44c.1670864.3449903.5166774.5641101.9.5641101s.7329136-.2191198.9-.5641101l3.588-7.435c3.6539761.2945481 7.1850041 1.4563592 10.3 3.389l-12.087 12.872 5.2-12.116c.2181524-.5075497-.0164504-1.0958475-.524-1.3139999-.5075497-.2181525-1.0958475.0164503-1.314.5239999l-6.062 14.119-6.061-14.119c-.1411199-.3283271-.4466805-.5564272-.80158-.5983774-.3548996-.0419501-.7052204.1086231-.919.395-.2137797.286377-.2585399.6650503-.11742.9933774l5.2 12.116-12.092-12.869c3.1155427-1.9319442 6.6461534-3.0946463 10.3-3.392zm24.211 3.629c.4198699.5928585.3642625 1.3993756-.133 1.929l-15.925 16.852-.006.006c-.9466499 1.0148221-2.2724985 1.5905414-3.6603056 1.5894035-1.3878071-.0011378-2.7127099-.5790304-3.6576944-1.5954035l-11.818-12.466-4.109-4.388c-.4967841-.5320776-.5498982-1.3404983-.127-1.933.269873-.3903277.7154758-.6217416 1.19-.618.4037814.0024022.7885636.1718078 1.063.468l15.277 16.258c.5811837.576966 1.3670592.9005195 2.186.9.8208433.0052068 1.6090432-.3211065 2.186-.905l15.274-16.25c.3033141-.3142149.7298489-.4785373 1.1655785-.4490388s.8362251.2498101 1.0944215.6020388z"/><path id="Shape" d="m39.132 5.356-5.02-.671-2.231-4.158c-.190572-.30275981-.5232554-.48645514-.881-.48645514s-.690428.18369533-.881.48645514l-2.231 4.158-5.02.671c-.3869007.05164041-.7083921.32367883-.8233492.69669855-.1149571.37301971-.002366.77883357.2883492 1.03930145l3.581 3.208-.841 4.513c-.0706181.3712494.0740784.7505969.3740007.9805092.2999224.2299122.7038334.2711123 1.0439993.1064908l4.509-2.181 4.509 2.181c.3394423.1638868.7422005.1229796 1.0417596-.1058092s.4450187-.6065838.3762404-.9771908l-.841-4.517 3.581-3.212c.2907152-.26046788.4033063-.66628174.2883492-1.03930145-.1149571-.37301972-.4364485-.64505814-.8233492-.69669855zm-4.8 3.834c-.2601321.23294541-.3799144.58471118-.316.928l.582 3.12-3.163-1.53c-.2753598-.1334044-.5966402-.1334044-.872 0l-3.163 1.53.582-3.12c.0639144-.34328882-.0558679-.69505459-.316-.928l-2.383-2.139 3.377-.451c.3185624-.04258518.5972422-.23568907.749-.519l1.591-2.966 1.591 2.966c.1517578.28331093.4304376.47641482.749.519l3.377.451z"/><path id="Shape" d="m9 40c.55228475 0 1-.4477153 1-1s-.44771525-1-1-1c-2.209139 0-4 1.790861-4 4 0 .5522847.44771525 1 1 1s1-.4477153 1-1c0-1.1045695.8954305-2 2-2z"/><path id="Shape" d="m14 54h-1v-2.517c.0364009-1.4666643.6497792-2.8597914 1.707-3.877 1.5397894-1.5518733 2.3696384-3.6711914 2.293-5.856-.1753683-4.233159-3.5874003-7.6137839-7.822-7.75-3.22695638-.0729403-6.18162637 1.800504-7.49194372 4.7503576-1.31031736 2.9498536-.71955887 6.398168 1.49794372 8.7436424 1.12409728 1.1229637 1.77415697 2.6346388 1.816 4.223v2.283h-1c-.55228475 0-1 .4477153-1 1s.44771525 1 1 1h1c0 2.209139 1.790861 4 4 4s4-1.790861 4-4h1c.5522847 0 1-.4477153 1-1s-.4477153-1-1-1zm-9.364-7.882c-2.24717997-2.3785045-2.174222-6.1189348.164-8.408 1.14681756-1.1442421 2.71584783-1.7631676 4.335-1.71 3.1751737.10204 5.7335954 2.636906 5.865 5.811.0567688 1.6370696-.5644471 3.2250234-1.717 4.389-1.4285704 1.3905723-2.2492479 3.2896698-2.283 5.283v.517h-4v-.283c-.04174257-2.1002391-.88792074-4.1043641-2.364-5.599zm6.364 9.882c0 1.1045695-.8954305 2-2 2s-2-.8954305-2-2v-2h4z"/><path id="Shape" d="m58.984 46.674c.2016191-.3064449.2192735-.6986812.046-1.022l-1.476-2.752c-.1892912-.3595409-.5790538-.5669121-.983-.523l-1.653.169-2.035-1.267-.709-1.679c-.1569486-.3694477-.5195969-.6092446-.921-.609h-3.508c-.4014031-.0002446-.7640514.2395523-.921.609l-.709 1.671-2.035 1.271-1.653-.169c-.403891-.0436257-.7935022.1636649-.983.523l-1.476 2.756c-.1732735.3233188-.1556191.7155551.046 1.022l.995 1.509v2.629l-.995 1.508c-.2020131.3066847-.2196729.6994223-.046 1.023l1.476 2.757c.1894978.3593351.579109.5666257.983.523l1.653-.169 2.035 1.267.709 1.671c.1569486.3694477.5195969.6092446.921.609h3.508c.4014031.0002446.7640514-.2395523.921-.609l.709-1.671 2.035-1.267 1.653.169c.4040015.0441993.7939161-.1632528.983-.523l1.476-2.756c.1736729-.3235777.1560131-.7163153-.046-1.023l-1-1.508v-2.63zm-2.83 4.988.832 1.262-.878 1.64-1.326-.135c-.2202098-.0219197-.4415293.0290189-.63.145l-2.594 1.615c-.1746688.1087079-.3115575.2686442-.392.458l-.575 1.353h-2.184l-.574-1.353c-.0810966-.1892542-.2182578-.3491011-.393-.458l-2.594-1.615c-.1878281-.117541-.4096863-.1686036-.63-.145l-1.326.135-.878-1.64.832-1.262c.1075857-.1632605.1649511-.3544785.165-.55v-3.229c-.0000489-.1955215-.0574143-.3867395-.165-.55l-.832-1.262.878-1.64 1.326.135c.2204226.0232283.4422642-.0281826.63-.146l2.594-1.614c.1751976-.1088134.3124661-.2691347.393-.459l.574-1.347h2.184l.575 1.352c.080269.1897249.2171741.3500296.392.459l2.594 1.614c.1884081.1161916.4096887.1674725.63.146l1.326-.135.878 1.64-.832 1.262c-.1075857.1632605-.1649511.3544785-.165.55v3.229c.0010216.1938181.0583461.3831624.165.545z"/><path id="Shape" d="m49.5 45c-2.4852814 0-4.5 2.0147186-4.5 4.5s2.0147186 4.5 4.5 4.5 4.5-2.0147186 4.5-4.5c-.0027556-2.4841391-2.0158609-4.4972444-4.5-4.5zm0 7c-1.3807119 0-2.5-1.1192881-2.5-2.5s1.1192881-2.5 2.5-2.5 2.5 1.1192881 2.5 2.5c0 .6630412-.2633921 1.298926-.732233 1.767767-.468841.4688409-1.1047258.732233-1.767767.732233z"/><path id="Shape" d="m38.622 56.809c-7.4725303 2.3942406-15.6358501 1.1372627-22.042-3.394-.4501121-.3203251-1.0746748-.215112-1.395.235-.3203251.4501121-.215112 1.0746748.235 1.395 6.9216401 4.8981408 15.7438026 6.2560234 23.818 3.666.4972851-.1899565.7585896-.7361905.5944153-1.2425725-.1641744-.506382-.6962721-.7953867-1.2104153-.6574275z"/><path id="Shape" d="m20.721 10.211c.3350476-.1406718.567417-.45202434.6069459-.81324853s-.1200048-.71546275-.4166998-.92526634c-.2966949-.20980359-.6838509-.24214875-1.0112461-.08448513-9.2658976 4.1458045-15.40449581 13.1595011-15.868 23.3-.01277139.2649617.080257.5241413.25861243.720501.17835544.1963598.42742197.3138084.69238757.326499h.049c.53406998.0006156.97436498-.4185453 1-.952.42890428-9.3878886 6.1112583-17.732891 14.689-21.572z"/><path id="Shape" d="m55.949 40.358c.534307.138695 1.0799356-.1817891 1.219-.716.5575337-2.1698245.8371059-4.4016973.832-6.642-.0104542-10.6134914-6.2290659-20.239433-15.9-24.612-.3267294-.15354461-.7108526-.11906582-1.0050153.09020988s-.4526917.56085503-.4147731.91986786c.0379185.35901283.266397.66971686.5977884.81292226 8.9545248 4.0487482 14.7124127 12.9617021 14.722 22.789.0053698 2.0706217-.2527018 4.1335148-.768 6.139-.0665728.2567297-.0284317.5293905.1060324.7579982s.3542362.3944354.6109676.4610018z"/></g></g></svg>