<?xml version="1.0"?>
<svg xmlns="http://www.w3.org/2000/svg" viewBox="0 0 64 64" width="512" height="512"><g id="Van"><path d="M50,44a3,3,0,1,0,3,3A3,3,0,0,0,50,44Zm0,4a1,1,0,1,1,1-1A1,1,0,0,1,50,48Z"/><path d="M14,44a3,3,0,1,0,3,3A3,3,0,0,0,14,44Zm0,4a1,1,0,1,1,1-1A1,1,0,0,1,14,48Z"/><path d="M62,42H61s-.03-9.613-.047-9.919a1.9,1.9,0,0,0-.01-.216,16.916,16.916,0,0,0-4.524-10.436.963.963,0,0,0-.174-.192A16.941,16.941,0,0,0,44,16H8a5.006,5.006,0,0,0-5,5V42H2a1,1,0,0,0-1,1v4a1,1,0,0,0,1,1H8.09a5.993,5.993,0,0,0,11.82,0H44.09a5.993,5.993,0,0,0,11.82,0H62a1,1,0,0,0,1-1V43A1,1,0,0,0,62,42ZM55.149,23a14.928,14.928,0,0,1,3.7,8H46V23ZM5,23h7v8H5ZM5,33h8a1,1,0,0,0,1-1V22a1,1,0,0,0-1-1H5a3,3,0,0,1,3-3H44a14.9,14.9,0,0,1,8.962,3H45a1,1,0,0,0-1,1V32a1,1,0,0,0,1,1H59v9H58a1,1,0,0,0-1,1v3H55.91a5.993,5.993,0,0,0-11.82,0H19.91A5.993,5.993,0,0,0,8.09,46H7V43a1,1,0,0,0-1-1H5ZM3,46V44H5v2Zm11,5a4,4,0,1,1,4-4A4,4,0,0,1,14,51Zm36,0a4,4,0,1,1,4-4A4,4,0,0,1,50,51Zm11-5H59V44h2Z"/><path d="M16,33H42a1,1,0,0,0,1-1V22a1,1,0,0,0-1-1H16a1,1,0,0,0-1,1V32A1,1,0,0,0,16,33Zm1-10H41v8H17Z"/><path d="M55.5,40A2.754,2.754,0,0,0,58,37a2.542,2.542,0,1,0-5,0A2.754,2.754,0,0,0,55.5,40Zm0-4c.177,0,.5.38.5,1s-.323,1-.5,1-.5-.38-.5-1S55.323,36,55.5,36Z"/><path d="M7,36H22a1,1,0,0,0,0-2H7a1,1,0,0,0,0,2Z"/><path d="M26,36a1,1,0,0,0,0-2H25a1,1,0,0,0,0,2Z"/><path d="M42,42H23a1,1,0,0,0,0,2H42a1,1,0,0,0,0-2Z"/></g></svg>
