<svg height="512" viewBox="0 0 60 54" width="512" xmlns="http://www.w3.org/2000/svg"><g id="Page-1" fill="none" fill-rule="evenodd"><g id="016---Certificate" fill="rgb(0,0,0)" fill-rule="nonzero"><path id="Shape" d="m57 0h-54c-1.65685425 0-3 1.34314575-3 3v42c0 1.6568542 1.34314575 3 3 3h29c.5522847 0 1-.4477153 1-1s-.4477153-1-1-1h-28.586l3-3h25.586c.5522847 0 1-.4477153 1-1s-.4477153-1-1-1h-25v-34h6c.5522847 0 1-.44771525 1-1s-.4477153-1-1-1h-6.586l-3-3h53.172l-3 3h-35.586c-.5522847 0-1 .44771525-1 1s.4477153 1 1 1h35v34h-4c-.5522847 0-1 .4477153-1 1s.4477153 1 1 1h4.586l2.925 2.925c-.1663402.0471473-.3381273.0723606-.511.075h-7c-.5522847 0-1 .4477153-1 1s.4477153 1 1 1h7c2.209139 0 4-1.790861 4-4v-41c0-1.65685425-1.3431458-3-3-3zm-52 41.586-3 3v-41.172l3 3zm52.925 2.925-2.925-2.925v-35.172l3-3v40.586c-.0025706.1728782-.0277853.3446742-.075.511z"/><path id="Shape" d="m37 13c.5522847 0 1-.4477153 1-1s-.4477153-1-1-1h-14c-.5522847 0-1 .4477153-1 1s.4477153 1 1 1z"/><path id="Shape" d="m27 33h-14c-.5522847 0-1 .4477153-1 1s.4477153 1 1 1h14c.5522847 0 1-.4477153 1-1s-.4477153-1-1-1z"/><path id="Shape" d="m41 17c0-.5522847-.4477153-1-1-1h-20c-.5522847 0-1 .4477153-1 1s.4477153 1 1 1h20c.5522847 0 1-.4477153 1-1z"/><path id="Shape" d="m33.075 38.924c.5254746.4671785 1.2277287.6835092 1.925.593v11.863c-.0024165.6954998.3566609 1.3423149.948228 1.7080666.591567.3657516 1.3306692.3979144 1.951772.0849334l2.6-1.31 2.607 1.314c.6211545.3099642 1.358614.2756581 1.9483096-.090634s.9472727-1.0121729.9446904-1.706366v-11.863c.6976021.0908093 1.4002843-.1255409 1.926-.593 1.22-1.221.153-3.5.429-4.171.26-.625 2.645-1.477 2.645-3.253s-2.383-2.62-2.645-3.253c-.27-.652.787-2.955-.43-4.171s-3.507-.155-4.171-.431c-.629-.26-1.479-2.645-3.254-2.645s-2.628 2.386-3.253 2.645c-.693.277-2.947-.794-4.173.431s-.153 3.5-.429 4.171c-.26.625-2.645 1.477-2.645 3.253s2.383 2.62 2.645 3.253c.27.652-.787 2.955.43 4.171zm8.325 11.152c-.5667311-.2825692-1.2332689-.2825692-1.8 0l-2.6 1.304v-12.06c.0833584-.0017994.1664513.0100227.246.035.629.26 1.479 2.645 3.254 2.645s2.628-2.386 3.253-2.645c.0798394-.0253017.1632601-.0374602.247-.0361175v12.0681175zm-9.4-18.562c.051-.2.639-.639.954-.875 1.642-1.225 1.915-1.766 1.614-3.928-.0737799-.3955955-.1072844-.7976491-.1-1.2.4163271-.0503043.8381331-.0307011 1.248.058 2.14.3 2.687.045 3.927-1.613.2305402-.3598395.5148367-.6822445.843-.956.2.051.638.638.874.954 1.239 1.658 1.786 1.913 3.927 1.614.3955427-.0741719.7976363-.1076797 1.2-.1.0503236.4159933.0307199.8374738-.058 1.247-.1788526.7598073-.1529726 1.5534588.075 2.3.489 1.17 2.316 1.985 2.496 2.485-.173.485-2.005 1.32-2.489 2.487-.2281153.7465176-.2539965 1.5402071-.075 2.3.0737799.3955955.1072844.7976491.1 1.2-.4163271.0503043-.8381331.0307011-1.248-.058-2.162-.3-2.7-.024-3.927 1.613-.2315343.3597-.516849.6817751-.846.955-.2-.051-.638-.638-.874-.954-1.239-1.659-1.785-1.912-3.927-1.614-.3955483.0741303-.7976377.1076377-1.2.1-.0503048-.415994-.0307012-.8374714.058-1.247.3-2.159.027-2.7-1.614-3.928-.3604385-.2293247-.6835351-.5126245-.958-.84z"/><path id="Shape" d="m40.5 36c2.4852814 0 4.5-2.0147186 4.5-4.5s-2.0147186-4.5-4.5-4.5-4.5 2.0147186-4.5 4.5c.0027556 2.4841391 2.0158609 4.4972444 4.5 4.5zm0-7c1.3807119 0 2.5 1.1192881 2.5 2.5s-1.1192881 2.5-2.5 2.5-2.5-1.1192881-2.5-2.5 1.1192881-2.5 2.5-2.5z"/><path id="Shape" d="m27 29c-1.7914989.0083832-3.5627193-.3791886-5.187-1.135 1.0380198-.7980048 1.7014108-1.9884192 1.834-3.291 0-.6-.263-2.574-3.647-2.574s-3.647 1.97-3.647 2.574c.1332717 1.3009494.79712 2.4893645 1.835 3.285-1.6236959.7592535-3.3955739 1.1489437-5.188 1.141-.5522847 0-1 .4477153-1 1s.4477153 1 1 1c2.4570718.011513 4.8742978-.6208066 7.011-1.834 2.1331204 1.2023482 4.5403588 1.8340373 6.989 1.834.5522847 0 1-.4477153 1-1s-.4477153-1-1-1zm-7.008-2.232c-1.19-.916-1.639-1.784-1.639-2.194s.887-.574 1.647-.574 1.647.15 1.647.574c0 .526-.591 1.38-1.655 2.194z"/></g></g></svg>