<svg height="512" viewBox="0 0 61 60" width="512" xmlns="http://www.w3.org/2000/svg"><g id="Page-1" fill="none" fill-rule="evenodd"><g id="020---Genius" fill="rgb(0,0,0)" fill-rule="nonzero"><path id="Shape" d="m46.715 33.48c1.1268896 1.0785049 2.6602351 1.6252555 4.2152654 1.5030527 1.5550304-.1222028 2.9841473-.9017599 3.9287346-2.1430527 6.849-1.843 9.253-7.859.529-16.07 4.939-4.648 6.71-8.989 4.981-12.288-.4078122-.76270203-.9733515-1.42982708-1.659-1.957-.40054-1.0194716-1.2040037-1.82848426-2.2206944-2.2360313s-2.1564946-.3775057-3.1503056.0830313c-5.646-.992-13.739.052-22.339 2.887-8.778-2.898-16.97-3.922-22.615-2.831-1.27443001-.59638355-2.75525638-.55803444-3.99710961.10351354s-2.09983109 1.86910394-2.31589039 3.25948646c-3.04 4.137.77 9.43 4.541 12.979-11.026 10.376-4.983 18.068 10.296 16.586 0 3.755-.973 7.358 3.023 11.386v2.921c-1.5037479 1.3108089-3.2881908 2.2591363-5.216 2.772-2.837.5-4.435 1.708-9.63 4.473-1.944 1.042-4.017 1.586-4.086 4.066-.0018662.2716398.10480545.5327809.29632422.7254262.19151878.1926454.45202969.3008468.72367578.3005738h57.98c.2697834.0000912.5281583-.1088272.7164603-.3020251.188302-.1931978.2905541-.4542827.2835397-.7239749-.057-2.035-1.5-2.834-3.359-3.711-1.061-.5-4-2.12-4.966-2.659-4.748-2.738-5.11-1.55-8.072-3.21-.8953933-.4994996-1.7438402-1.0788533-2.535-1.731v-2.92c3.9-3.935 3.023-7.322 3.023-11.386.55.053 1.074.097 1.624.123zm3.9-12.84c2.681 2.605 3.025 4.126 3 4.3l-.015.015c-2.3202288-1.5855646-5.463621-1.1601983-7.279.985-1.3156964-.0555593-2.6273428-.183419-3.929-.383 2.8575031-1.4334725 5.6047107-3.0769839 8.219-4.917zm-.115 12.36c-1.9329966 0-3.5-1.5670034-3.5-3.5s1.5670034-3.5 3.5-3.5 3.5 1.5670034 3.5 3.5-1.5670034 3.5-3.5 3.5zm5.426-2.641c.2298119-1.4021082-.0998185-2.8384063-.918-4 1.755-1.759-1.008-5.154-2.779-6.919.562-.4326667 1.1133333-.8786667 1.654-1.338 4.517 4.216 7.776 9.727 2.043 12.257zm-2.679-14.337c-4.2882346 3.6342222-9.06891 6.6436911-14.2 8.939-1.579-.328-3.216-.742-4.892-1.23 6.0104056-2.1501425 11.6533627-5.2141367 16.73-9.084 3.158-2.559 5.151-5.066 5.557-6.925 1.0008645-.38590902 1.8054487-1.1566388 2.234-2.14 1.134 2.518-.87 6.398-5.429 10.44zm-42.565-9.887c3.6941866-.26161283 7.4067607.02277749 11.018.844-3.4483106 1.5991932-6.7556855 3.4862066-9.887 5.641-1.3986582-1.1368026-2.6306953-2.4644404-3.66-3.944 1.15789183-.46116637 2.0733199-1.38093812 2.529-2.541zm7.2 5.039c-.9231067 1.3763853-1.5321633 2.9389705-1.784 4.577-.711-.451-1.418-.92-2.646-1.842 1.384-.941 2.868-1.858 4.426-2.735zm8.041-3.353c3.2947025-1.12444094 6.8692975-1.12444094 10.164 0 4.436 1.427 7.5 4.356 7.951 9.058-4.1414039 2.3801805-8.5088076 4.3434688-13.038 5.861-4.5270938-1.5192102-8.8929756-3.4820817-13.034-5.86.449-4.707 3.485-7.624 7.953-9.059zm28.349.105c-1.0410489 1.81312208-2.4279448 3.4042131-4.082 4.683-3.1297516-2.1469114-6.4312814-4.03197085-9.871-5.636 3.7133172-.84353808 7.5333915-1.11700267 11.329-.811.5943791.92250577 1.5416642 1.56029619 2.62 1.764zm-8.363 7.82c-.2511042-1.6223603-.84606-3.172314-1.745-4.546 1.546.871 3.016 1.776 4.387 2.706-1.392 1.049-2.046 1.461-2.646 1.84zm11.091-11.746c0 1.1045695-.8954305 2-2 2s-2-.8954305-2-2 .8954305-2 2-2 2 .8954305 2 2zm-5.518-1.863c-.328587.59483851-.4922329 1.26668428-.474 1.946-4.586-.377-10.115.574-14.6 1.749-1.3980219-.4351039-2.8403189-.71249451-4.3-.827 7.257-2.339 14.284-3.37 19.374-2.868zm-23.644 2.235c-1.147.431-2.306.9-3.118 1.241-4.4812625-1.21236942-9.1233764-1.72276244-13.761-1.513-.0589419-.68610195-.276311-1.3491631-.635-1.937 4.621-.509 10.876.281 17.514 2.209zm-21.338-2.372c1.38071187 0 2.5 1.11928813 2.5 2.5s-1.11928813 2.5-2.5 2.5-2.5-1.11928813-2.5-2.5 1.11928813-2.5 2.5-2.5zm-3.481 5.317c.74163908.91763474 1.81613442 1.50467083 2.989 1.633 1.308739 2.2214226 3.04770917 4.1592779 5.115 5.7 8.444 6.81 23.183 12.424 34.121 13.231-.3538497 1.1424255-.3218713 2.3695549.091 3.492-11.513-1.1-24.842-6.522-33.447-12.831-3.338-2.426-8.673-7.104-8.869-11.225zm8.371 13.323c2.6157366 1.8394521 5.363516 3.4835741 8.221 4.919-1.8540431.2778976-3.725312.42526-5.6.441-3.841-.008-5.381-.78-5.574-.977-.07-.252.271-1.778 2.953-4.383zm-3.273-2.54c.542.4613333 1.09333333.9076667 1.654 1.339-2.71 2.707-3.874 5.105-3.1 6.52.694 1.269 3.436 2.031 7.388 2.04 2.9112924-.0406894 5.8120781-.3587947 8.663-.95 1.6.724 3.074 1.352 5.1 2.114-19.445 5.645-32.595.967-19.705-11.063zm-2.906 38.973c1.156-.544 4.162-2.2 5.112-2.737 3.869-2.227 4.24-1.579 6.376-2.4-.1811877 2.0280489-.0595215 4.0717718.361 6.064h-13.521c.52400892-.3656166 1.0843019-.6762575 1.672-.927zm46.476-2.731c.973.546 3.945 2.187 5.1 2.731.5883594.2500345 1.1490554.560713 1.673.927h-13.52c.4206907-1.9928817.5423576-4.0372891.361-6.066 2.171.837 2.554.201 6.386 2.408zm-8.52-3.47c.3564826 2.3724711.2611412 4.7909545-.281 7.128h-23.772c-.5390497-2.3374602-.6343681-4.7553589-.281-7.128.4-.237.767-.476 1.1-.706v1.8c0 .5522847.4477153 1 1 1s1-.4477153 1-1v-5.01c2.367 3.074 3.144 6.044 7.057 6.044 5.825 0 6.7.545 9.617-3.945.43-.662.9-1.373 1.461-2.1v5.01c0 .5522847.4477153 1 1 1s1-.4477153 1-1v-1.8c.332.235.699.47 1.099.707zm-2.712-7.341c-.0580218.0470244-.1109756.0999782-.158.158-1.2886335 1.2865116-2.4189745 2.7223502-3.367 4.277-2.292 3.534-2.295 3.034-7.94 3.034-3.286 0-3.306-3.465-7.288-7.312-.0458257-.0578281-.0981719-.1101743-.156-.156-3.672-3.545-2.563-6.352-2.646-10.422 4.1122858-.5684957 8.162972-1.5172266 12.1-2.834 3.9369809 1.3169395 7.9876827 2.2656742 12.1 2.834-.084 4.09 1.029 6.873-2.645 10.421z"/></g></g></svg>