<?xml version="1.0"?>
<svg xmlns="http://www.w3.org/2000/svg" viewBox="0 0 64 64" width="512" height="512"><g id="working-chair-desk-monitor-online"><path d="M62,37V33a1,1,0,0,0-1-1H48V31a3.009,3.009,0,0,0-3-3H44V26h5a3.009,3.009,0,0,0,3-3V5a3.009,3.009,0,0,0-3-3H15a3.009,3.009,0,0,0-3,3V23a3.009,3.009,0,0,0,3,3h5v2H19a3.009,3.009,0,0,0-3,3v1H3a1,1,0,0,0-1,1v4a1,1,0,0,0,1,1H4.87L2.01,60.88a.968.968,0,0,0,.24.78A.981.981,0,0,0,3,62H5a1,1,0,0,0,.96-.72L12.75,38H16v3a1,1,0,0,0,1,1h3v2a1,1,0,0,0,1,1h8v6H22a1,1,0,0,0-1,1v4.18a3,3,0,1,0,2,0V53h8v3.18a3,3,0,1,0,2,0V53h8v3.18a3,3,0,1,0,2,0V52a1,1,0,0,0-1-1H35V45h8a1,1,0,0,0,1-1V42h3a1,1,0,0,0,1-1V38h3.25l6.79,23.28A1,1,0,0,0,59,62h2a.981.981,0,0,0,.75-.34.968.968,0,0,0,.24-.78L59.13,38H61A1,1,0,0,0,62,37ZM4.25,60H4.13L6.88,38h3.79ZM16,36H4V34H16Zm4,4H18V31a1,1,0,0,1,1-1h1Zm2,20a1,1,0,1,1,1-1A1,1,0,0,1,22,60Zm20-2a1,1,0,1,1-1,1A1,1,0,0,1,42,58ZM32,60a1,1,0,1,1,1-1A1,1,0,0,1,32,60Zm1-9H31V45h2Zm9-8H22V23a1,1,0,0,1,1-1H41a1,1,0,0,1,1,1ZM26,20V18a6,6,0,0,1,12,0v2Zm15,0H40V18a8,8,0,0,0-16,0v2H23a3.009,3.009,0,0,0-3,3v1H15a1,1,0,0,1-1-1V5a1,1,0,0,1,1-1H49a1,1,0,0,1,1,1V23a1,1,0,0,1-1,1H44V23A3.009,3.009,0,0,0,41,20Zm5,20H44V30h1a1,1,0,0,1,1,1ZM59.87,60h-.12L53.33,38h3.79ZM60,36H48V34H60Z"/><path d="M46,11h2V7a1,1,0,0,0-1-1H43V8h3Z"/><rect x="46" y="13" width="2" height="2"/></g></svg>
