<svg xmlns="http://www.w3.org/2000/svg" xmlns:xlink="http://www.w3.org/1999/xlink" width="1417" height="1417" viewBox="0 0 1417 1417">
  <defs>
    <style>
      .cls-1 {
        fill: url(#linear-gradient);
      }

      .cls-2 {
        fill: #fff;
        fill-rule: evenodd;
      }
    </style>
    <linearGradient id="linear-gradient" x1="708.5" y1="1417" x2="708.5" gradientUnits="userSpaceOnUse">
      <stop offset="0" stop-color="#8dc641" stop-opacity="0.996"/>
      <stop offset="0.992" stop-color="#158799"/>
      <stop offset="1" stop-color="#158799"/>
    </linearGradient>
  </defs>
  <rect id="Fond_en_dégradé_3" data-name="Fond en dégradé 3" class="cls-1" width="1417" height="1417"/>
  <path id="Fond_en_dégradé_2" data-name="Fond en dégradé 2" class="cls-2" d="M706.969,194.84c25.077-.275,49.8,14.586,71.4,21.268L938.644,267c20.491,7.188,69.056,13.2,51.652,48.613-12.2,24.818-69.027,18.31-96.468,28.105q-0.379,30-.76,60.008c-1.852,5.449-8.289,8.225-9.874,12.913V445.5c0,50.928,11.107,92.863-28.1,107.862-1.017,34.851-19.3,62.249-35.7,82.795L797.36,656.67v15.951l108.621,71.4,62.287,18.23c44.1,17.384,72.892,52.981,82.032,105.583V972.659c0,16.251,2.52,38.331-2.28,50.891-5.06,13.29-16.07,25.61-28.86,31.14-23.61,10.22-105.771,3.8-139.764,3.8H450.987c-18.113.01-39.662,1.74-52.411-3.8-24.638-10.69-38.064-41.44-30.384-81.271,4.544-3.57,5.773-6.071,14.432-6.077,3.838,1.843,6.566,3.675,8.356,7.6,4.651,9.935-1.578,28.482,2.279,39.5,8.84,25.25,49.039,19.4,82.795,18.99-0.156-19.18-2.246-43.449,1.519-60.011,2.073-2.876,3.889-4.729,7.6-6.077,6.1-2.757,11.135,1.361,14.432,3.8,4.725,16.089,2.369,42.39,2.279,62.29H915.856c-0.658-23.41-8.26-66.818,15.951-66.848,14.606,7.451,9.543,45.318,9.115,66.848,27.128,0.35,67.328,5.19,79-10.64,9.55-12.95,5.32-46.9,5.32-68.361-0.01-74.564,3.32-122.381-40.261-154.2-7.3-5.325-71.078-33.36-82.036-30.383L711.526,883.787c-10.54,2.383-54.437-29.319-63.8-34.941l-132.928-79L486.688,778.2c-35.127,11.082-60.7,20.663-78.238,48.614-7.569,12.063-12.925,27-15.951,43.3-3.4,18.294,2.06,40.679-1.519,56.97-4.544,3.569-5.773,6.07-14.432,6.076-3.838-1.843-6.566-3.675-8.356-7.595l-0.759-23.548c0-34.705,2.805-58.755,15.191-79.757,17.989-30.5,41.3-52.4,78.238-63.8l49.373-13.673,110.141-72.92V655.91c-37.738-27.528-43.634-53.225-58.489-103.3-38.022-6.858-27.349-65.721-27.345-109.381V416.64c-1.939-5.7-9-8.392-10.634-15.952q-0.38-28.861-.76-57.728l-62.286-10.635v60.008q0.379,0.759.76,1.519c35.722,1.084,22.2,44.878,28.1,75.2,5.319,27.331,25.806,96.356,3.8,112.42-9.605,7.01-31.613,4.556-47.854,4.557H413.008c-9.725-2.359-18.992-11.48-21.269-21.268-3.133-13.47,3.024-28.987,5.318-39.5q6.075-35.7,12.153-71.4c5.41-30.432-8.268-59.707,26.586-60.008V324.729c-4.115-9.673-17.813-17.323-7.6-34.941,9.949-17.157,45.263-20.391,65.324-27.345l196.734-62.286c4.254,2.89,11.4,6.213,15.951,8.355Q706.59,201.677,706.969,194.84ZM548.974,395.371H868.761q-0.379-26.2-.759-52.411c-14.89.32-25.673-2.321-32.662-9.875-0.465-8.881,1.055-13.375,6.836-15.952,11.29-5.8,28.114,4.527,41.777,2.279l82.8-14.432c-0.692-2.773.029-1.553-1.519-3.038L770.774,240.415c-11.423-3.559-53.862-22.174-65.324-19.749L562.647,267l-85.834,27.345c-8.46,2.652-20.715,3.623-26.585,9.115l2.279,1.519,36.46,6.077,44.816,8.355,157.994-18.989c31.194-5.108,77.611,3.3,103.3,9.115,3.57,4.543,6.071,5.772,6.077,14.432-1.843,3.838-3.675,6.565-7.6,8.355-13.4,5.12-64.556-6.853-85.074-6.836-31.6.025-61.11,5.016-89.631,9.875l-69.883,8.355v51.652Zm-114.7,23.547v23.548h28.1V418.918h-28.1ZM559.609,421.2v40.258c31,1.045,30.633-10.28,29.624-40.258H559.609Zm55.45,0c0.96,47.028-8.39,66.276-55.45,65.325q0.379,18.608.759,37.22c4.747,7.917,20.623,3.352,25.826,15.951q2.279,15.191,4.558,30.384c10.4,34.829,33.726,63.89,64.565,78.237,69.879,32.51,134.061-5.132,161.792-53.171,5.765-9.986,9.532-23.288,12.154-35.7q1.139-9.873,2.279-19.749c5.168-12.59,21.142-8.06,25.826-15.951q0.379-18.609.759-37.22c-47.078.945-56.37-18.319-55.45-65.325H615.059Zm213.444,0c-1,29.986-1.385,41.292,29.624,40.258V421.2H828.5ZM432.757,467.532c-4.614,11.468-18.234,84.595-14.432,93.43,11.7,0.25,57.475,2.308,61.527-3.039q-7.975-45.19-15.952-90.391H432.757ZM646.2,671.862c-4.433,16.267,3.349,60.779,9.115,71.4,20.591,2.33,89.481,10.535,107.1,0,5.43-3.246,6.869-35.53,8.355-45.575V671.862C728.452,691.3,688.243,684.985,646.2,671.862Zm-26.586,31.143-79,52.412,1.519,2.278,124.573,72.921v-0.76c-18.9-35.843-44.215-73.093-44.816-126.851h-2.279Zm176.225,0c0.317,40.153-16.177,79.47-31.9,106.342l-12.913,21.269h0.76l125.332-75.2q-0.379-.761-0.76-1.52Zm-131.409,67.6c2.3,13.3,36.512,72.1,45.575,75.959,10.611-26.411,37.215-45.205,43.3-75.959C725.319,771.3,692.418,771.3,664.432,770.608Zm-3.038,367.642h17.47v81.28H663.672q-0.38-3.81-.759-7.6-2.658,2.655-5.317,5.32c-22.749,8.03-44.146-10.26-34.182-37.22,5.832-15.78,21.967-19,37.98-12.16v-29.62Zm-201.292,3.8c10.723-.3,18.676.88,25.826,3.8-0.374,4.89-1.93,10.81-4.557,13.67-8.989-4.01-20.328-4.28-26.586,2.28,0.253,1.26.507,2.53,0.76,3.79,7.03,12.44,29.41,8.72,33.422,25.07,7.571,30.85-33.145,34.14-52.412,25.07q1.519-6.84,3.039-13.67c9.011,1.83,18.206,4.95,28.864,2.27,1.013-1.26,2.026-2.53,3.038-3.79q-0.38-2.67-.759-5.32c-4.594-8.15-17.739-8.23-25.067-13.67C422.914,1164.64,445.244,1148.83,460.1,1142.05Zm76.719,34.94H523.908c-0.151,9.52-.126,19.93,1.519,27.34,0.76,0.26,1.519.51,2.279,0.76q4.177,0.39,8.355.76c0.277,4.48.627,10.72-1.519,12.92-26.82,14.43-28.2-20.53-27.345-41.78h-7.6v-12.91h7.6c-0.293-5.15-.763-10.12,2.279-12.16q7.215-1.89,14.432-3.8,0.379,7.98.76,15.96,6.075,0.375,12.153.76v12.15Zm331.181,0H855.089c-0.151,9.52-.126,19.93,1.519,27.34,0.76,0.26,1.519.51,2.279,0.76q4.178,0.39,8.355.76c0.277,4.48.627,10.72-1.519,12.92-26.82,14.43-28.195-20.53-27.345-41.78h-7.6v-12.91h7.6c-0.293-5.15-.763-10.12,2.279-12.16q7.215-1.89,14.432-3.8l0.759,15.96q6.077,0.375,12.154.76v12.15Zm-149.639-13.67c19.049-.85,38.9,13.88,28.864,34.18H712.286c2.779,12.43,18.649,10.2,31.143,8.35v1.52c0.507,3.29,1.013,6.59,1.519,9.88h-1.519c-21.947,13.43-53.476-4.28-47.854-30.39C698.636,1172.65,706.594,1169.01,718.363,1163.32Zm97.987,56.21H799.639c0.344-15.05,1.538-33.23-4.558-41.78-7.833-.39-10.676.98-12.913,6.07q-0.38,17.85-.759,35.71H763.938q0.38-27.735.76-55.45,7.215,0.375,14.432.76,0.38,3.4.76,6.83,2.658-2.655,5.317-5.32C821.09,1154.21,817.3,1186.83,816.35,1219.53Zm83.555-56.21c8.8-.31,15.338.75,20.509,3.79q-1.52,5.325-3.039,10.64c-6.209-1.4-13.646-4.35-18.23.76v3.04c7.551,4.01,19.526,6.88,22.788,15.19,9.435,24.03-24.387,25.41-39.5,20.51-0.253-1.27-.506-2.54-0.76-3.8,0.76-2.79,1.52-5.57,2.279-8.36,6.868,1.09,12.316,3.82,20.509,2.28q0.38-1.14.76-2.28l0.759-3.03C887.853,1190.53,865.5,1178.48,899.905,1163.32Zm-347.133.76h17.471c-0.342,15.05-1.555,33.24,4.557,41.77q3.8-.375,7.6-0.76c2.776-1.25,3.274-1.81,4.558-4.55q0.38-18.24.759-36.46h17.471v55.45H590.752q-0.379-3.42-.76-6.84h-0.759C553.556,1240.4,551.759,1197.75,552.772,1164.08Zm167.11,10.63c-3.977,3.13-6.725,4.14-7.6,10.63H732.8v-0.76C730.852,1177.56,729.144,1174.46,719.882,1174.71Zm-69.123,1.52c-1.772.51-3.545,1.01-5.317,1.52-5.434,6.68-10.412,22.2.76,27.34,2.7,1.62,5.654,1.51,9.115.76,1.772-2.02,3.545-4.05,5.317-6.07v-16.71C658.566,1178.45,655.877,1177.81,650.759,1176.23Z"/>
</svg>
