<svg xmlns="http://www.w3.org/2000/svg" xmlns:xlink="http://www.w3.org/1999/xlink" width="1417" height="1417" viewBox="0 0 1417 1417">
  <defs>
    <style>
      .cls-1 {
        fill-rule: evenodd;
        fill: url(#linear-gradient);
      }
    </style>
    <linearGradient id="linear-gradient" x1="708.018" y1="1352.47" x2="708.018" gradientUnits="userSpaceOnUse">
      <stop offset="0" stop-color="#8dc641" stop-opacity="0.996"/>
      <stop offset="1" stop-color="#158799"/>
    </linearGradient>
  </defs>
  <path id="Fond_en_dégradé_2" data-name="Fond en dégradé 2" class="cls-1" d="M706,0c33.014-.362,65.564,19.2,94,28l211,67c26.98,9.464,90.91,17.382,68,64-16.06,32.672-90.874,24.1-127,37q-0.5,39.5-1,79c-2.439,7.174-10.913,10.829-13,17v38c0,67.046,14.622,122.254-37,142-1.339,45.882-25.4,81.951-47,109l-29,27v21l143,94,82,24c58.06,22.886,95.96,69.75,108,139v138c0,21.4,3.31,50.46-3,67-6.67,17.49-21.16,33.71-38,41-31.08,13.45-139.248,5-184,5H369c-23.847,0-52.215,2.28-69-5-32.435-14.07-50.111-54.56-40-107,5.982-4.7,7.6-7.99,19-8,5.053,2.43,8.643,4.84,11,10,6.123,13.08-2.077,37.5,3,52,11.638,33.24,64.56,25.55,109,25-0.2-25.25-2.956-57.2,2-79,2.729-3.79,5.12-6.23,10-8,8.025-3.63,14.66,1.79,19,5,6.22,21.18,3.118,55.81,3,82H981c-0.867-30.81-10.874-87.96,21-88,19.23,9.81,12.56,59.66,12,88,35.71,0.46,88.64,6.83,104-14,12.58-17.06,7-61.74,7-90,0-98.164,4.38-161.114-53-203-9.6-7.01-93.574-43.919-108-40L712,907c-13.876,3.137-71.668-38.6-84-46L453,757l-37,11c-46.244,14.589-79.909,27.2-103,64-9.966,15.881-17.017,35.546-21,57-4.472,24.084,2.712,53.553-2,75-5.982,4.7-7.6,7.992-19,8-5.053-2.426-8.643-4.838-11-10q-0.5-15.5-1-31c0-45.69,3.693-77.351,20-105,23.682-40.155,54.371-68.982,103-84l65-18,145-96V607c-49.681-36.241-57.444-70.071-77-136-50.056-9.029-36-86.522-36-144V292c-2.553-7.5-11.845-11.048-14-21q-0.5-38-1-76l-82-14v79l1,2c47.029,1.427,29.232,59.082,37,99,7,35.981,33.972,126.852,5,148-12.645,9.23-41.618,6-63,6H319c-12.8-3.105-25-15.114-28-28-4.125-17.733,3.981-38.16,7-52q8-46.995,16-94c7.123-40.063-10.885-78.6,35-79V171c-5.417-12.735-23.45-22.806-10-46,13.1-22.587,59.589-26.845,86-36L684,7c5.6,3.8,15,8.18,21,11Q705.5,9,706,0ZM498,264H919q-0.5-34.5-1-69c-19.6.422-33.8-3.055-43-13-0.611-11.692,1.39-17.608,9-21,14.864-7.632,37.012,5.96,55,3l109-19c-0.91-3.651.04-2.045-2-4L790,60c-15.039-4.685-70.91-29.192-86-26L516,95,403,131c-11.139,3.491-27.272,4.77-35,12l3,2,48,8,59,11,208-25c41.066-6.724,102.174,4.348,136,12,4.7,5.982,7.992,7.6,8,19-2.426,5.053-4.838,8.643-10,11-17.637,6.74-84.988-9.022-112-9-41.6.034-80.451,6.6-118,13l-92,11v68ZM347,295v31h37V295H347Zm165,3v53c40.819,1.375,40.329-13.534,39-53H512Zm73,0c1.264,61.912-11.046,87.252-73,86q0.5,24.5,1,49c6.25,10.423,27.15,4.414,34,21q3,20,6,40c13.688,45.853,44.4,84.112,85,103,92,42.8,176.491-6.756,213-70,7.59-13.147,12.549-30.659,16-47l3-26c6.8-16.575,27.834-10.611,34-21q0.5-24.5,1-49c-61.978,1.245-74.212-24.116-73-86H585Zm281,0c-1.321,39.476-1.824,54.361,39,53V298H866ZM345,359c-6.075,15.1-24,111.369-19,123,15.4,0.33,75.666,3.04,81-4q-10.5-59.495-21-119H345ZM626,628c-5.836,21.416,4.409,80.016,12,94,27.109,3.067,117.8,13.869,141,0,7.148-4.274,9.043-46.775,11-60V628C734.282,653.588,681.347,645.277,626,628Zm-35,41L487,738l2,3,164,96v-1c-24.878-47.188-58.209-96.227-59-167h-3Zm232,0c0.417,52.862-21.3,104.622-42,140l-17,28h1l165-99q-0.5-1-1-2ZM650,758c3.027,17.512,48.067,94.916,60,100,13.969-34.771,48.993-59.512,57-100C730.157,758.908,686.843,758.913,650,758Zm-4,484h23v107H649l-1-10q-3.5,3.495-7,7c-29.948,10.57-58.118-13.5-45-49,7.678-20.78,28.919-25,50-16v-39Zm-265,5c14.116-.39,24.586,1.16,34,5-0.493,6.44-2.541,14.24-6,18-11.834-5.27-26.762-5.63-35,3,0.333,1.67.667,3.33,1,5,9.255,16.37,38.718,11.48,44,33,9.967,40.61-43.635,44.94-69,33q2-9,4-18c11.864,2.42,23.969,6.52,38,3,1.333-1.67,2.667-3.33,4-5-0.333-2.33-.667-4.67-1-7-6.048-10.73-23.353-10.83-33-18C332.042,1276.74,361.439,1255.93,381,1247Zm101,46H465c-0.2,12.54-.166,26.25,2,36,1,0.33,2,.67,3,1,3.666,0.33,7.334.67,11,1,0.365,5.9.825,14.1-2,17-35.309,19.01-37.119-27.02-36-55H433v-17h10c-0.386-6.77-1-13.32,3-16q9.5-2.505,19-5,0.5,10.5,1,21,8,0.495,16,1v16Zm436,0H901c-0.2,12.54-.166,26.25,2,36,1,0.33,2,.67,3,1,3.666,0.33,7.334.67,11,1,0.365,5.9.825,14.1-2,17-35.309,19.01-37.119-27.02-36-55H869v-17h10c-0.386-6.77-1-13.32,3-16q9.5-2.505,19-5,0.5,10.5,1,21,8,0.495,16,1v16Zm-197-18c25.079-1.11,51.217,18.27,38,45H713c3.659,16.37,24.551,13.44,41,11v2q1,6.495,2,13h-2c-28.893,17.69-70.4-5.63-63-40C695.029,1287.29,705.506,1282.49,721,1275Zm129,74H828c0.453-19.81,2.025-43.74-6-55-10.312-.51-14.055,1.29-17,8q-0.5,23.505-1,47H781q0.5-36.495,1-73,9.5,0.495,19,1,0.5,4.5,1,9,3.5-3.495,7-7C856.241,1263.01,851.253,1305.95,850,1349Zm110-74c11.585-.4,20.192.99,27,5q-2,7.005-4,14c-8.175-1.84-17.966-5.73-24,1v4c9.941,5.28,25.706,9.06,30,20,12.42,31.64-32.106,33.45-52,27-0.333-1.67-.667-3.33-1-5q1.5-5.505,3-11c9.041,1.43,16.214,5.03,27,3q0.5-1.5,1-3c0.333-1.33.667-2.67,1-4C944.134,1310.83,914.711,1294.96,960,1275Zm-457,1h23c-0.449,19.81-2.047,43.77,6,55,3.333-.33,6.667-0.67,10-1,3.655-1.65,4.31-2.39,6-6q0.5-24,1-48h23v73H553q-0.5-4.5-1-9h-1C504.032,1376.48,501.666,1320.33,503,1276Zm220,14c-5.235,4.13-8.853,5.45-10,14h27v-1C737.442,1293.75,735.194,1289.67,723,1290Zm-91,2c-2.333.67-4.667,1.33-7,2-7.154,8.8-13.708,29.23,1,36,3.549,2.13,7.444,1.99,12,1q3.5-4.005,7-8v-22C642.277,1294.92,638.737,1294.09,632,1292Z"/>
</svg>
