<?xml version="1.0" encoding="iso-8859-1"?>
<!-- Generator: Adobe Illustrator 16.0.0, SVG Export Plug-In . SVG Version: 6.00 Build 0)  -->
<!DOCTYPE svg PUBLIC "-//W3C//DTD SVG 1.1//EN" "http://www.w3.org/Graphics/SVG/1.1/DTD/svg11.dtd">
<svg version="1.1" id="Capa_1" xmlns="http://www.w3.org/2000/svg" xmlns:xlink="http://www.w3.org/1999/xlink" x="0px" y="0px"
	 width="963px" height="963px" viewBox="0 0 963 963" style="enable-background:new 0 0 963 963;" xml:space="preserve">
<g>
	<path d="M481.5,963C747.4,963,963,747.4,963,481.5C963,215.6,747.4,0,481.5,0C215.6,0,0,215.6,0,481.5C0,747.4,215.6,963,481.5,963
		z M271.4,421.8l218.3-238.1c33.6-36.6,90.5-39.1,127.2-5.5c36.6,33.6,39.1,90.5,5.5,127.2L459.8,482.6L617.6,655
		c33.601,36.7,31,93.6-5.6,127.2c-17.3,15.8-39,23.6-60.7,23.6c-24.399,0-48.7-9.8-66.399-29.2L271.3,543.3
		C239.9,508.9,239.9,456.2,271.4,421.8z"/>
</g>
<g>
</g>
<g>
</g>
<g>
</g>
<g>
</g>
<g>
</g>
<g>
</g>
<g>
</g>
<g>
</g>
<g>
</g>
<g>
</g>
<g>
</g>
<g>
</g>
<g>
</g>
<g>
</g>
<g>
</g>
</svg>
