<svg xmlns="http://www.w3.org/2000/svg" width="518" height="361" viewBox="0 0 518 361">
  <defs>
    <style>
      .cls-1 {
        fill: #fff;
        fill-rule: evenodd;
      }
    </style>
  </defs>
  <path id="Fond_1" data-name="Fond 1" class="cls-1" d="M238,7c6.951,7.809,8.618,37.46,15,48l41,49h1c-0.479-17.524-3.227-39.742,5-48h1q4.5,15,9,30l-6-2v31c67.819,55.624,38.734,148.171-29,181-44.909,21.766-80.4-.308-73-49h-1c-4.445,9.914-30.742,21.864-41,26,1.165-7.6,3.341-10.884,9-14l-7-6q0.5-4.5,1-9c3.508-7.864,10.911-13.61,19-17l8,3c0.465,8.6-.376,11.459-6,14-1.839-4.5-1.978-4.612-8-5-3.665,1.854-4.853,2.618-7,6l18,4c6.289-1.923,11.085-8.975,16-7v4c0.427-17.353-39.449-36.887-30-82,10.19-48.653,56.1-61.051,64-116h2c0.424,55.041-33.428,70.9-23,123h-1q-0.5-1-1-2c-11-13.9-7.69-34.817-1-50l-2,1c-22.78,47.962-59.826,58.081-3,109l12-12,22-15v-1l-35-3,3-17c1.167-1.682,51.572-29.271,53-29,6.722,1.275,10.979,16.693,16,21h1C285.614,100.765,224.305,81.134,238,7ZM89,66l34,15V207c0,16.054-3.254,42.133,3,53,9.536,3.832,93.64,63.53,96,69L91,268Zm323,0h3q-1,100.991-2,202L282,329v-3l99-69V127c0-11.27-3.939-39.195,2-46ZM42,102l32,6L73,280l129,56v2h-7L42,306V102Zm389,5,31-5q-0.5,102.491-1,205L302,338v-2l129-56V107Zm-157-3c13.452,21.85,20.757,46.167,8,72,5.322-1.029,8.639-1.883,11-6,5.316-7.925,3.263-28.239,3-41Zm-18,20c5.244,2.788,9.706,6.106,11,13l-9,10-12-11v-2Zm48,16c1.16,32.18-5.049,46.555-30,47-0.833-2.913-10.21-15.457-14-20l-32,15v1l59,6q-2.5,7-5,14l-23,4c-15.6,4.064-30.194,12.922-39,24v1h4c9.705-3.763,15.733-10.247,25-13,0.175,6.651,1.513,8.243,4,12,12.839,0.445,24.9,2.979,33,8,4.15,13.377,1.781,26.9-2,39C341.279,248.147,348.971,187.451,304,140Zm-9,60c8.061-.276,17.88-0.452,23,2v1c-2.055,12.623-14.352,18.124-27,20l2-5,14-7-17-1Q292.5,205,295,200Zm-32,8a21.793,21.793,0,0,1,13,8q-2.5,7-5,14l-15-7C256.926,215.743,260.04,213.017,263,208Zm-20,23c-6.579,10.061-16.646,15.588-33,13-4.8,16.526-4.49,39.167,10,45,28.411,11.437,78.16-14.521,61-39l-35-9Zm-5,13,14,7v4l-7,11-14-8Z"/>
</svg>
