<?xml version="1.0"?>
<svg xmlns="http://www.w3.org/2000/svg" id="outline" viewBox="0 0 512 512" width="512" height="512"><path d="M480,400H456V184h16a7.99906,7.99906,0,0,0,4.79688-14.39844l-89.67383-67.25537A23.7689,23.7689,0,0,0,392,88a24,24,0,0,0-48,0,23.7689,23.7689,0,0,0,4.877,14.34619L344,106.00391l-68.877-51.65772A23.7689,23.7689,0,0,0,280,40a24,24,0,0,0-48,0A23.7689,23.7689,0,0,0,236.877,54.34619L168,106.00391l-4.87695-3.65772A23.7689,23.7689,0,0,0,168,88a24,24,0,0,0-48,0,23.7689,23.7689,0,0,0,4.87695,14.34619L35.20312,169.60156A7.99906,7.99906,0,0,0,40,184H56v50.84473A71.369,71.369,0,0,0,44.20068,304H32a16.01833,16.01833,0,0,0-16,16v16a16.01833,16.01833,0,0,0,16,16H56V480a16.01833,16.01833,0,0,0,16,16H88a16.01833,16.01833,0,0,0,16-16V352h72V480a16.01833,16.01833,0,0,0,16,16h16a16.01833,16.01833,0,0,0,16-16V352h5.1875L288,399.04639V480a16.01833,16.01833,0,0,0,16,16h16a16.01833,16.01833,0,0,0,16-16V437.44336l8.79688,7.03711A16.04716,16.04716,0,0,0,354.80469,448H408v32a16.01833,16.01833,0,0,0,16,16h16a16.01833,16.01833,0,0,0,16-16V448h24a16.01833,16.01833,0,0,0,16-16V416A16.01833,16.01833,0,0,0,480,400ZM270.146,264H288v40H272V280A71.786,71.786,0,0,0,270.146,264ZM304,264h16v40H304Zm32,0a72.08124,72.08124,0,0,1,72,72v36.15479l-72-57.59815ZM440,397.75391l-16-12.79932V336a88.09957,88.09957,0,0,0-88-88H264.40283a72.14363,72.14363,0,0,0-10.88965-16H336A104.1179,104.1179,0,0,1,440,336ZM176,208H112a72.25768,72.25768,0,0,0-8,.47168V184h72Zm16,0V136h16v72.47168A72.25768,72.25768,0,0,0,200,208Zm32-72h64v80H232.835A71.49329,71.49329,0,0,0,224,212.20068ZM408,240.22754A119.21845,119.21845,0,0,0,336,216V184h72ZM320,216H304V136h16Zm120,60.38818a120.47605,120.47605,0,0,0-16-21.69677V184h16ZM368,80a8,8,0,1,1-8,8A8.00791,8.00791,0,0,1,368,80Zm-5.33594,32h10.67188L448,168H336V136h24a7.99906,7.99906,0,0,0,4.79688-14.39844l-7.46778-5.60107ZM256,32a8,8,0,1,1-8,8A8.00791,8.00791,0,0,1,256,32Zm-5.33594,32h10.67188L336,120H176ZM144,80a8,8,0,1,1-8,8A8.00791,8.00791,0,0,1,144,80Zm-5.33594,32h10.67188l5.335,4.00049-7.46778,5.60107A7.99906,7.99906,0,0,0,152,136h24v32H64ZM88,184v28.20068a71.80365,71.80365,0,0,0-16,7.97364V184ZM32,320H52.17432a72.5504,72.5504,0,0,0,14.67041,16H32ZM88,480H72V352H88Zm24-144a56,56,0,0,1,0-112h42.84473a71.83234,71.83234,0,0,0,0,112Zm96,144H192V352h16Zm112,0H304V411.84521l16,12.79932ZM200,304a24,24,0,1,1,24-24A24.02624,24.02624,0,0,1,200,304Zm170.8125,96L270.80615,320H317.1875l100.00391,80ZM440,480H424V448h16Zm-85.1875-48L239.20312,339.51953A16.04716,16.04716,0,0,0,229.19531,336H200a56,56,0,1,1,56-56v24H231.79541A39.6101,39.6101,0,0,0,240,280a40,40,0,1,0-40,40h45.19531l115.60157,92.48047A16.04716,16.04716,0,0,0,370.80469,416H480v16Z"/></svg>
