<svg height="512" viewBox="0 0 512 512" width="512" xmlns="http://www.w3.org/2000/svg"><path d="m416 8h-320a8 8 0 0 0 -8 8v480a8 8 0 0 0 8 8h320a8 8 0 0 0 8-8v-480a8 8 0 0 0 -8-8zm-8 480h-304v-464h304z"/><path d="m213.183 167.521a8.023 8.023 0 0 0 1.116.967 63.808 63.808 0 0 0 83.374.024 8.048 8.048 0 0 0 1.194-1.034 64 64 0 1 0 -85.684.043zm13.5-9.55c-.005-.212-.02-.427-.02-.638a29.333 29.333 0 0 1 58.666 0c0 .211-.015.426-.02.638a47.853 47.853 0 0 1 -58.626 0zm18.646-56.638a10.667 10.667 0 1 1 10.671 10.667 10.679 10.679 0 0 1 -10.667-10.667zm10.671-29.333a47.966 47.966 0 0 1 42.651 69.978 45.582 45.582 0 0 0 -21.336-24.64 26.667 26.667 0 1 0 -42.63 0 45.582 45.582 0 0 0 -21.336 24.64 47.966 47.966 0 0 1 42.651-69.978z"/><path d="m128 256h32a8 8 0 0 0 8-8v-32a8 8 0 0 0 -8-8h-32a8 8 0 0 0 -8 8v32a8 8 0 0 0 8 8zm8-32h16v16h-16z"/><path d="m184 224h200a8 8 0 0 0 0-16h-200a8 8 0 0 0 0 16z"/><path d="m184 256h136a8 8 0 0 0 0-16h-136a8 8 0 0 0 0 16z"/><path d="m344 240a8 8 0 0 0 0 16h8a8 8 0 0 0 0-16z"/><path d="m128 320h32a8 8 0 0 0 8-8v-32a8 8 0 0 0 -8-8h-32a8 8 0 0 0 -8 8v32a8 8 0 0 0 8 8zm8-32h16v16h-16z"/><path d="m184 288h200a8 8 0 0 0 0-16h-200a8 8 0 0 0 0 16z"/><path d="m184 320h136a8 8 0 0 0 0-16h-136a8 8 0 0 0 0 16z"/><path d="m344 304a8 8 0 0 0 0 16h8a8 8 0 0 0 0-16z"/><path d="m128 384h32a8 8 0 0 0 8-8v-32a8 8 0 0 0 -8-8h-32a8 8 0 0 0 -8 8v32a8 8 0 0 0 8 8zm8-32h16v16h-16z"/><path d="m184 352h200a8 8 0 0 0 0-16h-200a8 8 0 0 0 0 16z"/><path d="m184 384h136a8 8 0 0 0 0-16h-136a8 8 0 0 0 0 16z"/><path d="m352 368h-8a8 8 0 0 0 0 16h8a8 8 0 0 0 0-16z"/></svg>