<svg height="496pt" viewBox="0 0 496 496" width="496pt" xmlns="http://www.w3.org/2000/svg"><path d="m489.824219 328.207031-240-56c-1.199219-.277343-2.441407-.277343-3.640625 0l-139.191406 32.480469c-1.472657-3.664062-2.855469-7.359375-4.023438-11.078125l-15.265625 4.78125c1.050781 3.34375 2.226563 6.679687 3.496094 9.984375l-85.015625 19.839844c-3.625.839844-6.183594 4.066406-6.183594 7.785156s2.558594 6.945312 6.175781 7.792969l54.609375 12.742187-25.882812 51.761719c-.964844-.089844-1.910156-.296875-2.902344-.296875-17.648438 0-32 14.351562-32 32s14.351562 32 32 32 32-14.351562 32-32c0-10.921875-5.511719-20.558594-13.886719-26.335938l26.695313-53.390624 35.191406 8.207031v87.519531c0 31.640625 88.960938 40 136 40s136-8.359375 136-40v-87.519531l105.824219-24.6875c3.617187-.847657 6.175781-4.074219 6.175781-7.792969s-2.558594-6.945312-6.175781-7.792969zm-457.824219 127.792969c-8.824219 0-16-7.175781-16-16s7.175781-16 16-16 16 7.175781 16 16-7.175781 16-16 16zm336 0c0 6.96875-42.054688 24-120 24s-120-17.03125-120-24v-83.785156l118.175781 27.578125c.609375.136719 1.214844.207031 1.824219.207031s1.214844-.070312 1.824219-.207031l86.175781-20.113281v68.320312h16v-72.054688l16-3.738281zm-120-72.214844-124.03125-28.9375 101.710938-10.167968c3.496093 8.9375 12.152343 15.320312 22.320312 15.320312 13.230469 0 24-10.769531 24-24s-10.769531-24-24-24c-10.648438 0-19.59375 7.015625-22.71875 16.632812l-149.554688 14.953126-32.527343-7.585938 204.800781-47.785156 204.800781 47.785156zm-8-47.785156c0-4.414062 3.585938-8 8-8s8 3.585938 8 8-3.585938 8-8 8-8-3.585938-8-8zm0 0"/><path d="m152 192h16c22.054688 0 40-17.945312 40-40 0-1.414062-.464844-2.671875-1.105469-3.824219l.097657-.054687-35.257813-63.457032 68.265625-21.71875v113.054688h-8c-4.425781 0-8 3.574219-8 8v24h-32c-13.230469 0-24 10.769531-24 24v16c0 4.425781 3.574219 8 8 8h144c4.425781 0 8-3.574219 8-8v-16c0-13.230469-10.769531-24-24-24h-32v-24c0-4.425781-3.574219-8-8-8h-8v-118.152344l63.222656-20.113281-30.214844 54.386719.105469.054687c-.648437 1.152344-1.113281 2.410157-1.113281 3.824219 0 22.054688 17.945312 40 40 40h16c22.054688 0 40-17.945312 40-40 0-1.414062-.464844-2.671875-1.105469-3.824219l.097657-.054687-33.398438-60.121094h34.40625v-16h-48c-.824219 0-1.640625.128906-2.425781.375l-65.589844 20.871094c2.527344-3.796875 4.015625-8.351563 4.015625-13.246094 0-13.230469-10.769531-24-24-24s-24 10.769531-24 24c0 10.199219 6.414062 18.871094 15.398438 22.335938l-80.636719 25.664062h-46.761719v16h34.40625l-33.398438 60.121094.105469.054687c-.648437 1.152344-1.113281 2.410157-1.113281 3.824219 0 22.054688 17.945312 40 40 40zm160 40v8h-128v-8c0-4.414062 3.585938-8 8-8h112c4.414062 0 8 3.585938 8 8zm-72-24v-16h16v16zm-72-32h-16c-10.433594 0-19.328125-6.6875-22.632812-16h61.265624c-3.304687 9.3125-12.199218 16-22.632812 16zm-34.40625-32 26.40625-47.519531 26.40625 47.519531zm202.40625-103.519531 26.40625 47.519531h-52.804688zm8 79.519531h-16c-10.433594 0-19.328125-6.6875-22.632812-16h61.265624c-3.304687 9.3125-12.199218 16-22.632812 16zm-96-104c4.414062 0 8 3.585938 8 8s-3.585938 8-8 8-8-3.585938-8-8 3.585938-8 8-8zm0 0"/><path d="m395.207031 286.007812 15.503907 3.984376c1.433593-5.566407 2.578124-11.222657 3.417968-16.808594l-15.832031-2.375c-.753906 5.046875-1.792969 10.160156-3.089844 15.199218zm0 0"/><path d="m400 248c0 2.542969-.0625 5.089844-.183594 7.601562l15.984375.796876c.136719-2.78125.199219-5.582032.199219-8.398438s-.0625-5.617188-.199219-8.398438l-15.984375.796876c.121094 2.511718.183594 5.058593.183594 7.601562zm0 0"/><path d="m398.296875 225.183594 15.832031-2.375c-.832031-5.578125-1.984375-11.234375-3.417968-16.808594l-15.503907 3.984375c1.296875 5.046875 2.335938 10.160156 3.089844 15.199219zm0 0"/><path d="m390.441406 194.808594 14.984375-5.609375c-2.152343-5.742188-4.625-11.398438-7.363281-16.808594l-14.277344 7.21875c2.460938 4.886719 4.710938 10 6.65625 15.199219zm0 0"/><path d="m362.007812 147.472656c4.6875 5.304688 9.046876 11 12.960938 16.933594l13.359375-8.8125c-4.328125-6.5625-9.160156-12.859375-14.335937-18.722656zm0 0"/><path d="m116.328125 172.007812-13.839844-8.015624c-3.128906 5.398437-5.984375 11.046874-8.496093 16.808593l14.648437 6.398438c2.28125-5.199219 4.863281-10.320313 7.6875-15.191407zm0 0"/><path d="m102.960938 202.398438-15.265626-4.796876c-1.734374 5.503907-3.183593 11.167969-4.335937 16.8125l15.6875 3.171876c1.03125-5.089844 2.34375-10.203126 3.914063-15.1875zm0 0"/><path d="m96.753906 232.792969-15.921875-1.578125c-.550781 5.519531-.832031 11.175781-.832031 16.785156h16c0-5.089844.246094-10.199219.753906-15.207031zm0 0"/><path d="m80.832031 264.792969c.558594 5.679687 1.425781 11.335937 2.535157 16.816406l15.671874-3.203125c-1.007812-4.933594-1.78125-10.054688-2.285156-15.183594zm0 0"/></svg>