<?xml version="1.0" encoding="iso-8859-1"?>
<!-- Generator: Adobe Illustrator 19.0.0, SVG Export Plug-In . SVG Version: 6.00 Build 0)  -->
<svg version="1.1" id="Capa_1" xmlns="http://www.w3.org/2000/svg" xmlns:xlink="http://www.w3.org/1999/xlink" x="0px" y="0px"
	 viewBox="0 0 512 512" style="enable-background:new 0 0 512 512;" xml:space="preserve">
<g>
	<g>
		<g>
			<path d="M488,80H24C10.745,80,0,90.745,0,104v304c0,13.255,10.745,24,24,24h464c13.255,0,24-10.745,24-24V104
				C512,90.745,501.255,80,488,80z M496,408c0,4.418-3.582,8-8,8H24c-4.418,0-8-3.582-8-8V104c0-4.418,3.582-8,8-8h464
				c4.418,0,8,3.582,8,8V408z"/>
			<path d="M152,136c-66.274,0-120,53.726-120,120s53.726,120,120,120s120-53.726,120-120C271.925,189.757,218.243,136.075,152,136z
				 M152,360c-57.438,0-104-46.562-104-104s46.562-104,104-104s104,46.562,104,104C255.934,313.41,209.41,359.934,152,360z"/>
			<path d="M318.688,136H312c-4.418,0-8,3.582-8,8v224c0,4.418,3.582,8,8,8h24c4.418,0,8-3.582,8-8v-96h16c4.418,0,8-3.582,8-8
				v-78.688C367.969,158.091,345.909,136.031,318.688,136z M328,360h-8v-88h8V360z M352,256h-32V152
				c17.863,0.729,31.976,15.41,32,33.288V256z"/>
			<path d="M456,136h-72c-4.418,0-8,3.582-8,8v64c0,13.255,10.745,24,24,24v136c0,4.418,3.582,8,8,8h24c4.418,0,8-3.582,8-8V232
				c13.255,0,24-10.745,24-24v-64C464,139.582,460.418,136,456,136z M424,360h-8V232h8V360z M448,208c0,4.418-3.582,8-8,8h-40
				c-4.418,0-8-3.582-8-8v-56h8v24h16v-24h8v24h16v-24h8V208z"/>
			<path d="M152,168c-48.601,0-88,39.399-88,88c0,48.601,39.399,88,88,88s88-39.399,88-88C239.943,207.423,200.577,168.057,152,168z
				 M152,328c-39.765,0-72-32.236-72-72c0-39.765,32.235-72,72-72s72,32.235,72,72C223.956,295.746,191.746,327.956,152,328z"/>
		</g>
	</g>
</g>
<g>
</g>
<g>
</g>
<g>
</g>
<g>
</g>
<g>
</g>
<g>
</g>
<g>
</g>
<g>
</g>
<g>
</g>
<g>
</g>
<g>
</g>
<g>
</g>
<g>
</g>
<g>
</g>
<g>
</g>
</svg>
