<svg height="512" viewBox="0 0 60 60" width="512" xmlns="http://www.w3.org/2000/svg"><g id="Page-1" fill="none" fill-rule="evenodd"><g id="011---Star" fill="rgb(0,0,0)" fill-rule="nonzero"><path id="Shape" d="m5.531 58.077c.44101202 1.1617235 1.55639474 1.9280261 2.799 1.923h13.51c.7407714.0003656 1.4556813-.272354 2.008-.766l1.778-1.6c.4125956-.3645804.6544633-.8847057.6673703-1.4351486.0129069-.5504428-.2043163-1.081333-.5993703-1.4648514l1.19-1.159c.3791932-.3686255.8871595-.5748972 1.416-.575h1.88c3.2552511.0055595 6.3073245-1.5817278 8.172-4.25 1.1399929-1.6462694 2.3653342-3.2317696 3.671-4.75.1241028-.1470607.2370819-.303159.338-.467l6.408-6.845c1.4395001-1.5512809 1.3791497-3.9675175-.136-5.445-.5447736-.5137645-1.2704101-.7915837-2.019-.773-.8219309.0219289-1.6016071.3689711-2.168.965l-1.694 1.775c-.174366-.4443027-.4377636-.8482472-.774-1.187-1.3961598-1.3002277-3.5598402-1.3002277-4.956 0-.6574406.6562839-1.0253847 1.5480623-1.022 2.477v5.82l-1.506 1.58c-.5910537.5982633-1.3707537.9738053-2.207 1.063-.1110281.0222102-.2237978.0345914-.337.037h-4.09c-.1319686-.0033677-.2634255-.017751-.393-.043-.8036301-.0900365-1.5523471-.4520457-2.122-1.026l-7.019-7.379c-.686997-.6936963-1.7694493-.8027384-2.581-.26-.0306099.0213236-.0599901.0443604-.088.069-1.0735153.9801801-1.7122784 2.3476728-1.775 3.8-.0954014 1.3264706.3492585 2.635206 1.233 3.629l3.012 3.263c.1907621.1830143.2990324.4356452.3.7.0002305.268981-.107909.5267134-.3.715l-.869.869-.007-.007c-.7614945-.6723501-1.9045055-.6723501-2.666 0l-8.266 7.438c-.92638307.831123-1.24035061 2.1495476-.788 3.309zm40.369-25.268c.1993135-.2109647.4739244-.3346115.764-.344.2226323-.0040424.4380005.0792333.6.232.7223867.7161947.7432245 1.8773472.047 2.619l-4.311 4.604v-4.07zm-27.138 15.843.775-.775c.5699068-.5638308.8888772-1.3333244.885-2.135.0027072-.779791-.305754-1.5284484-.857-2.08l-2.977-3.227c-.5188934-.5991447-.7744721-1.3821024-.709-2.172.0391699-.8710073.3992988-1.6967033 1.011-2.318l7.01 7.372c.8757199.8957656 2.0304913 1.4664498 3.274 1.618.2263352.0416188.4558759.0633683.686.065h4.09c.2102708-.0004979.4200865-.0195721.627-.057 1.2751996-.1505749 2.4601514-.7340498 3.357-1.653l1.79-1.881c.1769815-.185756.2757947-.4324309.276-.689v-6.22c.0006069-.3979349.1575498-.7796978.437-1.063.5995867-.5550815 1.5254133-.5550815 2.125 0 .2800909.2829588.4374496.664859.438 1.063v6.89c.0010439.3466619-.0937831.6868624-.274.983-.021.031-.04.063-.058.1-.0472583.081002-.1025359.1570506-.165.227-1.3491092 1.5706839-2.6154914 3.210572-3.794 4.913-1.4916961 2.1285411-3.9298071 3.3933415-6.529 3.387h-1.88c-1.0493387.0007241-2.0569082.4112154-2.808 1.144l-1.3 1.265-5.133-4.5zm-11.1 7.6 8.261-7.431 7.651 6.7.725.619-1.778 1.6c-.186202.1692619-.4293726.2621024-.681.26h-13.51c-.41601479.0021596-.78991058-.2534691-.93888064-.641903-.14897007-.3884339-.0418922-.8285229.26888064-1.105097z"/><path id="Shape" d="m19.293 56.707c.3923789.3789722 1.0160848.3735524 1.4018186-.0121814s.3911536-1.0094397.0121814-1.4018186l-1.766-1.766c-.3923789-.3789722-1.0160848-.3735524-1.4018186.0121814s-.3911536 1.0094397-.0121814 1.4018186z"/><path id="Shape" d="m11.06 31.613c.6153795.4504548 1.4333729.5117364 2.109.158l4.316-2.252 4.315 2.252c.6722461.3516637 1.4855914.2926856 2.1000712-.1522826.6144799-.4449682.9242876-1.1993077.7999288-1.9477174l-.823-4.758 3.486-3.371c.5452658-.5292028.7417766-1.3226173.5065335-2.0451344-.2352431-.7225172-.8612171-1.2481403-1.6135335-1.3548656l-4.823-.7-2.156-4.333c-.3361669-.6814146-1.0311801-1.1117717-1.791-1.109-.7600229-.0035808-1.4555761.4264822-1.792 1.108l-2.155 4.333-4.823.7c-.75277719.1060025-1.37939259.6316162-1.61474559 1.3544709-.235353.7228548-.03831812 1.5166393.50774559 2.0455291l3.485 3.371-.822 4.758c-.1306903.7450855.1752393 1.4994273.788 1.943zm-2.06-11.496 5.342-.771c.3273736-.0455461.611094-.2499146.758-.546l2.388-4.808v.005l2.389 4.8c.1464346.2939874.4278949.4973266.753.544l5.344.755-3.866 3.738c-.2381189.2303171-.3467205.5636117-.29.89l.908 5.276-4.778-2.5c-.2898033-.1511743-.6351967-.1511743-.925 0l-4.781 2.5.912-5.279c.0567205-.3263883-.0518811-.6596829-.29-.89z"/><path id="Shape" d="m50.266 8.4-6.874-1-3.076-6.267c-.339463-.69330155-1.044053-1.13282735-1.816-1.13282735s-1.476537.4395258-1.816 1.13282735l-3.076 6.267-6.875 1c-.7625862.11349644-1.395156.64899239-1.6329776 1.38238182-.2378217.73338948-.0398833 1.53820048.5109776 2.07761818l4.977 4.877-1.175 6.888c-.1314967.7605581.1805767 1.5297616.8048115 1.9837119.6242348.4539504 1.4521748.5137771 2.1351885.1542881l6.147-3.248 6.147 3.249c.683188.3596734 1.5114155.2997776 2.1357435-.1544529.624328-.4542304.9362135-1.223825.8042565-1.9845471l-1.175-6.887 4.977-4.877c.5507248-.539792.748438-1.3448099.510436-2.07831396-.2380021-.73350404-.8707002-1.2690762-1.633436-1.38268604zm-5.628 7.276c-.2344267.2295861-.3413072.5595703-.286.883l1.23 7.441-6.615-3.5c-.2922093-.1543236-.6417907-.1543236-.934 0l-6.649 3.462 1.264-7.4c.0553072-.3234297-.0515733-.6534139-.286-.883l-5.339-5.3 7.4-1.081c.3259318-.0475093.6075663-.2524704.753-.548l3.337-6.75.008.013 3.308 6.736c.1454337.2955296.4270682.5004907.753.548l7.408 1.134z"/><path id="Shape" d="m.805 13.323 1.961.39c.06587525.0129252.13286935.0192896.2.019.51472548.000512.94576156-.3897878.99618496-.9020378.05042339-.51225-.29623876-.9791027-.80118496-1.0789622l-1.961-.39c-.54179134-.1076955-1.06830447.2442087-1.176.786s.24420866 1.0683045.786 1.176z"/><path id="Shape" d="m56.843 24.249 1.962.39c.0659475.0124207.1328933.0187806.2.019.5145333-.000004.9450828-.3904523.9952313-.9025359s-.2964742-.9786407-.8012313-1.0784641l-1.961-.39c-.5417913-.1079717-1.0685283.2437087-1.1765.7855s.2437087 1.0685283.7855 1.1765z"/><path id="Shape" d="m1 24.658c.06710666-.0002194.13405246-.0065793.2-.019l1.962-.39c.54179132-.1079717.89347162-.6347087.78549996-1.1765-.10797167-.5417913-.63470863-.8934716-1.17649996-.7855l-1.961.39c-.50402503.0996574-.8505165.565045-.80146409 1.0764809.0490524.5114359.47768528.9024804.99146409.9045191z"/><path id="Shape" d="m57.038 13.732c.0671307.0002896.1341248-.0060748.2-.019l1.961-.39c.5417913-.1076955.8936955-.6342087.786-1.176s-.6342087-.8936955-1.176-.786l-1.962.39c-.5049462.0998595-.8516084.5667122-.801185 1.0789622s.4814595.9025498.996185.9020378z"/><path id="Shape" d="m5.331 35.111c.1975323.0000443.39065313-.0584139.555-.168l1.663-1.111c.45922477-.3070703.58257032-.9282752.2755-1.3875s-.92827523-.5825703-1.3875-.2755l-1.663 1.111c-.36601601.2450113-.52862769.7006512-.40043982 1.1220371.12818787.421386.5169876.7092835.95743982.7089629z"/><path id="Shape" d="m54.114 1.057-1.663 1.111c-.2991495.19759173-.4696327.54020728-.446837.89799673s.2353816.67599869.5571887.8340277c.321807.158029.7035876.13169389 1.0006483-.06902443l1.664-1.111c.4592248-.30707032.5825703-.92827523.2755-1.3875s-.9282752-.58257032-1.3875-.2755z"/><path id="Shape" d="m6.437 3.831c.29706634.19863968.67753996.2237073.99810013.06576014.32056018-.15794716.53250618-.47491318.55600001-.83150001.02349383-.35658684-.14503379-.69862047-.44210014-.89726013l-1.663-1.111c-.29706634-.19863967-.67753996-.22370729-.99810012-.06576012-.32056017.15794716-.53250617.47491317-.556.8315-.02349383.35658682.14503378.69862045.44210012.89726012z"/><path id="Shape" d="m55.5 34.667c.3069815-.4589663.1838733-1.0798794-.275-1.387l-1.664-1.111c-.4591257-.3032579-1.0769896-.1786237-1.382651.2789055-.3056613.4575291-.1842689 1.076038.271651 1.3840945l1.663 1.111c.4592264.3067861 1.0802013.1832179 1.387-.276z"/></g></g></svg>