<svg height="512" viewBox="0 0 60 60" width="512" xmlns="http://www.w3.org/2000/svg"><g id="Page-1" fill="none" fill-rule="evenodd"><g id="021---Ideas" fill="rgb(0,0,0)" fill-rule="nonzero" transform="translate(-1 -1)"><path id="Shape" d="m38 38h-1.356c2.9732356-2.3937318 4.1130871-6.4026408 2.8440302-10.002582-1.2690568-3.5999412-4.6709525-6.0077863-8.4880302-6.0077863s-7.2189734 2.4078451-8.4880302 6.0077863c-1.2690569 3.5999412-.1292054 7.6088502 2.8440302 10.002582h-1.356c-3.3123376.0033074-5.9966926 2.6876624-6 6v15c0 1.1045695.8954305 2 2 2h22c1.1045695 0 2-.8954305 2-2v-15c-.0033074-3.3123376-2.6876624-5.9966926-6-6zm-14-7c0-3.8659932 3.1340068-7 7-7s7 3.1340068 7 7-3.1340068 7-7 7c-3.8641657-.0044086-6.9955914-3.1358343-7-7zm18 28h-4v-12c0-.5522847-.4477153-1-1-1s-1 .4477153-1 1v12h-10v-12c0-.5522847-.4477153-1-1-1s-1 .4477153-1 1v12h-4v-15c0-2.209139 1.790861-4 4-4h14c2.209139 0 4 1.790861 4 4z"/><path id="Shape" d="m46.85 28.853c-.0485224-.354405-.2826541-.6559004-.6140073-.7906681-.3313533-.1347676-.7094567-.0822798-.9915714.1376488-.2821148.2199285-.4252695.5737984-.3754213.9280193.0867644.6202345.1305355 1.2457264.131 1.872.0001737 2.1697911-.5044616 4.3098692-1.474 6.251-.1607695.3192168-.1390266.6999548.0570385.9987937s.5366654.470378.8935001.4500001c.3568346-.020378.6756919-.229577.8364614-.5487938 1.1098776-2.2203703 1.6874628-4.6686882 1.687-7.151-.0003217-.7182732-.0504419-1.4356599-.15-2.147z"/><path id="Shape" d="m31 15c-5.2484045.0017827-10.1625603 2.5761846-13.152 6.89-.3148023.4539781-.2019781 1.0771977.252 1.392s1.0771977.2019781 1.392-.252c4.2438504-6.1348354 12.5551207-7.860007 18.89-3.921.469442.2916063 1.0863936.147442 1.378-.322.2916063-.469442.147442-1.0863936-.322-1.378-2.5323702-1.5755481-5.4555095-2.4100874-8.438-2.409z"/><path id="Shape" d="m47 47.09c.2752175-.0001656.5382008-.1137512.727-.314 4.035783-4.2602468 6.2813681-9.9076802 6.273-15.776.0020554-.9312586-.0540538-1.8617365-.168-2.786-.0734277-.544332-.5721434-.9275546-1.1170278-.8583455s-.9319586.5649414-.8669722 1.1103455c.103626.8406553.1543925 1.6869853.152 2.534.0068534 5.3565443-2.043217 10.5112526-5.727 14.4-.2764827.290026-.3531469.7170866-.1948055 1.0851705.1583414.3680838.521111.6061099.9218055.6048295z"/><path id="Shape" d="m45.379 15.35c.4173339.0001149.7908561-.2589537.9369768-.6498711.1461206-.3909173.0341103-.8314727-.2809768-1.1051289-8.4932095-7.33079724-21.0335874-7.47313355-29.691-.337-.4048309.356752-.4536227.9703442-.1102593 1.3865913.3433634.4162472.9550385.4850184 1.3822593.1554087 7.9031732-6.51635201 19.3519702-6.38965464 27.109.3.1802711.1602125.4128259.2491096.654.25z"/><path id="Shape" d="m11.618 18.61c-1.3264914 2.0702373-2.31171559 4.3401696-2.918 6.723-.13646825.5348559.18624683 1.0791298.721 1.216.08107392.0205105.16437192.0309228.248.031.4568567.0001096.8556996-.3094155.969-.752.552534-2.1757932 1.45134-4.2485842 2.662-6.139.2979576-.4650238.1625237-1.0835424-.3025-1.3815-.4650238-.2979576-1.0835424-.1625237-1.3815.3025z"/><path id="Shape" d="m11.994 39.943c-.1477352-.3308667-.4628966-.5559295-.8237999-.5882912-.3609033-.0323618-.7110772.1330412-.9153192.4323466-.2042419.2993053-.2305937.6856801-.0688809 1.0099446 1.0389711 2.1950045 2.4175682 4.2124472 4.085 5.978.3783151.4026156 1.0113844.4223151 1.414.044s.4223151-1.0113844.044-1.414c-1.524234-1.613127-2.7846987-3.4564089-3.735-5.462z"/><path id="Shape" d="m57.85 19.994c-.5166525.1936062-.7788807.7690762-.586 1.286 4.5063237 12.1964336.0269883 25.8903781-10.816 33.066-.4333156.3140232-.5426168.9135221-.2480043 1.3602618.2946125.4467398.8887093.5823671 1.3480043.3077382 11.6210598-7.6883262 16.4210447-22.3645419 11.589-35.434-.1936015-.5171907-.7697865-.7795407-1.287-.586z"/><path id="Shape" d="m49.622 7.487c-9.5047218-7.535773-22.613848-8.60152353-33.211-2.7-.4681168.27637705-.629704.87608891-.3638103 1.35023882s.861862.64903989 1.3418103.39376118c11.637557-6.45526555 26.2094856-3.84152665 34.878 6.256.5939696.68026 1.1479035 1.394464 1.659 2.139.2025696.2943869.5468051.4583419.9030364.430105.3562313-.028237.6703383-.2443762.824-.567.1536617-.3226239.1235332-.7027182-.0790364-.997105-.5534978-.8050922-1.1528197-1.5777-1.795-2.314-1.2533808-1.4615987-2.6455648-2.79818909-4.157-3.991z"/><path id="Shape" d="m15.552 54.346c-10.80925414-7.1568945-15.29769553-20.7942783-10.852-32.972.18998593-.5185954-.07640464-1.093014-.59500001-1.283-.51859537-.1899859-1.09301402.0764046-1.28299999.595-4.76447305 13.0475347.04424096 27.6598045 11.626 35.328.2978104.2158227.690056.25075 1.0213142.0909422.3312581-.1598078.5480576-.4885547.5644942-.8559786s-.1701428-.7142159-.4858084-.9029636z"/><path id="Shape" d="m15.954 9.138c-.1159863-.36921259-.4345951-.63835527-.818-.691l-2.943-.405-1.306-2.5c-.1893718-.3082656-.5252136-.49610368-.887-.49610368-.36178635 0-.69762819.18783808-.887.49610368l-1.306 2.5-2.943.405c-.38309808.05287622-.70136573.3219075-.81728984.69085415s-.00872119.77166202.27528984 1.03414585l2.1 1.934-.492 2.716c-.06830435.3717295.07880573.7502082.38022622.9782302.3014205.2280219.705645.266623 1.04477378.0997698l2.645-1.321 2.645 1.321c.3394965.1672969.7443514.1285918 1.046-.1.3023733-.2273163.450593-.6057991.383-.978l-.492-2.716 2.1-1.934c.2827778-.26319557.3886664-.66572819.272-1.034zm-4.132 1.871c-.2514546.2319571-.3668842.5763598-.306.913l.234 1.294-1.3-.649c-.2803163-.1392926-.60968369-.1392926-.89 0l-1.3.649.234-1.294c.06088418-.3366402-.05454541-.6810429-.306-.913l-.952-.869 1.355-.187c.3211031-.04390543.60101688-.24070234.751-.528l.658-1.262.658 1.262c.1499831.28729766.4298969.48409457.751.528l1.355.187z"/><path id="Shape" d="m55.954 18.138c-.1159863-.3692126-.4345951-.6383553-.818-.691l-2.943-.4-1.306-2.5c-.1893718-.3082656-.5252136-.4961037-.887-.4961037s-.6976282.1878381-.887.4961037l-1.306 2.5-2.943.4c-.3830981.0528762-.7013657.3219075-.8172898.6908541-.1159241.3689467-.0087212.7716621.2752898 1.0341459l2.1 1.934-.492 2.716c-.0683044.3717295.0788057.7502082.3802262.9782302.3014205.2280219.705645.266623 1.0447738.0997698l2.645-1.321 2.645 1.321c.3394965.1672969.7443514.1285918 1.046-.1.3023733-.2273163.450593-.6057991.383-.978l-.492-2.716 2.1-1.934c.2827778-.2631956.3886664-.6657282.272-1.034zm-4.132 1.871c-.2514546.2319571-.3668842.5763598-.306.913l.234 1.294-1.3-.649c-.2803163-.1392926-.6096837-.1392926-.89 0l-1.3.649.234-1.294c.0608842-.3366402-.0545454-.6810429-.306-.913l-.942-.869 1.355-.187c.3211031-.0439054.6010169-.2407023.751-.528l.648-1.262.658 1.262c.1499831.2872977.4298969.4840946.751.528l1.355.187z"/><path id="Shape" d="m18.074 35.822-.492-2.716 2.1-1.934c.284011-.2624838.3912139-.6651992.2752898-1.0341459-.1159241-.3689466-.4341917-.6379779-.8172898-.6908541l-2.943-.4-1.306-2.5c-.1893718-.3082656-.5252136-.4961037-.887-.4961037s-.6976282.1878381-.887.4961037l-1.306 2.5-2.943.4c-.38309808.0528762-.70136573.3219075-.81728984.6908541-.11592411.3689467-.00872119.7716621.27528984 1.0341459l2.1 1.934-.492 2.716c-.06726529.3706251.0794425.7476054.37954.9752655.3000974.2276601.7026646.2673712 1.04146.1027345l2.645-1.321 2.645 1.321c.3394965.1672969.7443514.1285918 1.046-.1.3023733-.2273163.450593-.6057991.383-.978zm-2.252-3.813c-.2514546.2319571-.3668842.5763598-.306.913l.234 1.294-1.3-.649c-.2803163-.1392926-.6096837-.1392926-.89 0l-1.3.649.234-1.294c.0608842-.3366402-.0545454-.6810429-.306-.913l-.942-.869 1.355-.187c.3211031-.0439054.6010169-.2407023.751-.528l.648-1.262.658 1.262c.1499831.2872977.4298969.4840946.751.528l1.355.187z"/></g></g></svg>