<svg height="512" viewBox="0 0 512 512" width="512" xmlns="http://www.w3.org/2000/svg"><path d="m120 160a104.118 104.118 0 0 0 -104 104c0 23.546 16.576 61.3 49.269 112.2 23.922 37.252 48.183 68.407 48.425 68.718a8 8 0 0 0 12.612 0c.242-.311 24.5-31.466 48.425-68.718 32.693-50.9 49.269-88.654 49.269-112.2a104.118 104.118 0 0 0 -104-104zm0 266.847c-29.415-39.014-88-124.611-88-162.847a88 88 0 0 1 176 0c0 38.236-58.585 123.833-88 162.847z"/><path d="m120 216a48 48 0 1 0 48 48 48.055 48.055 0 0 0 -48-48zm0 80a32 32 0 1 1 32-32 32.036 32.036 0 0 1 -32 32z"/><path d="m120 456c-12.023 0-72 1.157-72 24s59.977 24 72 24 72-1.157 72-24-59.977-24-72-24zm0 32c-28.335 0-46.923-4.562-53.821-8 6.9-3.438 25.486-8 53.821-8s46.923 4.562 53.821 8c-6.898 3.438-25.486 8-53.821 8z"/><path d="m488 56h-64v-24a24.027 24.027 0 0 0 -24-24h-64a24.027 24.027 0 0 0 -24 24v24h-64a8 8 0 0 0 -8 8v160a8 8 0 0 0 8 8h240a8 8 0 0 0 8-8v-160a8 8 0 0 0 -8-8zm-160-24a8.009 8.009 0 0 1 8-8h64a8.009 8.009 0 0 1 8 8v24h-80zm-72 40h224v48h-40v-16a8 8 0 0 0 -8-8h-32a8 8 0 0 0 -8 8v16h-48v-16a8 8 0 0 0 -8-8h-32a8 8 0 0 0 -8 8v16h-40zm168 40v32h-16v-32zm-96 0v32h-16v-32zm152 104h-224v-80h40v16a8 8 0 0 0 8 8h32a8 8 0 0 0 8-8v-16h48v16a8 8 0 0 0 8 8h32a8 8 0 0 0 8-8v-16h40z"/><path d="m432 192h-48a8 8 0 0 0 0 16h48a8 8 0 0 0 0-16z"/><path d="m456 208h8a8 8 0 0 0 0-16h-8a8 8 0 0 0 0 16z"/><path d="m464 424h-144v-32h104a8 8 0 0 0 8-8v-48a8 8 0 0 0 -8-8h-48v-80a8 8 0 0 0 -16 0v88a8 8 0 0 0 8 8h48v32h-104a8 8 0 0 0 -8 8v48a8 8 0 0 0 8 8h144v32h-216a8 8 0 0 0 0 16h224a8 8 0 0 0 8-8v-48a8 8 0 0 0 -8-8z"/><path d="m216 472h-8a8 8 0 0 0 0 16h8a8 8 0 0 0 0-16z"/></svg>